<svg width="1244" height="404" xmlns="http://www.w3.org/2000/svg" xmlns:xlink="http://www.w3.org/1999/xlink" xml:space="preserve" overflow="hidden"><defs><clipPath id="clip0"><rect x="1861" y="1308" width="1244" height="404"/></clipPath></defs><g clip-path="url(#clip0)" transform="translate(-1861 -1308)"><path d="M0 0 105 0 105 277 0 277 0 0Z" fill="#FFFFFF" fill-rule="evenodd" transform="matrix(-1 0 0 1 1966 1435)"/><path d="M0 0 105 0 105 277 0 277 0 0Z" fill="#595959" fill-rule="evenodd" fill-opacity="0.4" transform="matrix(-1 0 0 1 1966 1435)"/><path d="M0 0 13.9997 0 13.9997 14.9998 0 14.9998 0 0Z" fill="#595959" fill-rule="evenodd" transform="matrix(-1 0 0 1 1953 1455)"/><path d="M0 0 14.9998 0 14.9998 14.9998 0 14.9998 0 0Z" fill="#595959" fill-rule="evenodd" transform="matrix(-1 0 0 1 1931 1455)"/><path d="M0 0 15.0001 0 15.0001 14.9998 0 14.9998 0 0Z" fill="#595959" fill-rule="evenodd" transform="matrix(-1 0 0 1 1908 1455)"/><path d="M0 0 15.0001 0 15.0001 14.9998 0 14.9998 0 0Z" fill="#595959" fill-rule="evenodd" transform="matrix(-1 0 0 1 1885 1455)"/><path d="M0 0 13.9997 0 13.9997 25.9998 0 25.9998 0 0Z" fill="#595959" fill-rule="evenodd" transform="matrix(-1 0 0 1 1953 1478)"/><path d="M0 0 14.9998 0 14.9998 25.9998 0 25.9998 0 0Z" fill="#595959" fill-rule="evenodd" transform="matrix(-1 0 0 1 1931 1478)"/><path d="M0 0 15.0001 0 15.0001 25.9998 0 25.9998 0 0Z" fill="#595959" fill-rule="evenodd" transform="matrix(-1 0 0 1 1908 1478)"/><path d="M0 0 15.0001 0 15.0001 25.9998 0 25.9998 0 0Z" fill="#595959" fill-rule="evenodd" transform="matrix(-1 0 0 1 1885 1478)"/><path d="M0 0 13.9997 0 13.9997 26.9998 0 26.9998 0 0Z" fill="#595959" fill-rule="evenodd" transform="matrix(-1 0 0 1 1953 1512)"/><path d="M0 0 14.9998 0 14.9998 26.9998 0 26.9998 0 0Z" fill="#595959" fill-rule="evenodd" transform="matrix(-1 0 0 1 1931 1512)"/><path d="M0 0 15.0001 0 15.0001 26.9998 0 26.9998 0 0Z" fill="#595959" fill-rule="evenodd" transform="matrix(-1 0 0 1 1908 1512)"/><path d="M0 0 15.0001 0 15.0001 26.9998 0 26.9998 0 0Z" fill="#595959" fill-rule="evenodd" transform="matrix(-1 0 0 1 1885 1512)"/><path d="M0 0 13.9997 0 13.9997 26.0001 0 26.0001 0 0Z" fill="#595959" fill-rule="evenodd" transform="matrix(-1 0 0 1 1953 1547)"/><path d="M0 0 14.9998 0 14.9998 26.0001 0 26.0001 0 0Z" fill="#595959" fill-rule="evenodd" transform="matrix(-1 0 0 1 1931 1547)"/><path d="M0 0 15.0001 0 15.0001 26.0001 0 26.0001 0 0Z" fill="#595959" fill-rule="evenodd" transform="matrix(-1 0 0 1 1908 1547)"/><path d="M0 0 15.0001 0 15.0001 26.0001 0 26.0001 0 0Z" fill="#595959" fill-rule="evenodd" transform="matrix(-1 0 0 1 1885 1547)"/><path d="M0 0 13.9997 0 13.9997 27.0002 0 27.0002 0 0Z" fill="#595959" fill-rule="evenodd" transform="matrix(-1 0 0 1 1953 1581)"/><path d="M0 0 14.9998 0 14.9998 27.0002 0 27.0002 0 0Z" fill="#595959" fill-rule="evenodd" transform="matrix(-1 0 0 1 1931 1581)"/><path d="M0 0 15.0001 0 15.0001 27.0002 0 27.0002 0 0Z" fill="#595959" fill-rule="evenodd" transform="matrix(-1 0 0 1 1908 1581)"/><path d="M0 0 15.0001 0 15.0001 27.0002 0 27.0002 0 0Z" fill="#595959" fill-rule="evenodd" transform="matrix(-1 0 0 1 1885 1581)"/><path d="M0 0 13.9997 0 13.9997 27.0002 0 27.0002 0 0Z" fill="#595959" fill-rule="evenodd" transform="matrix(-1 0 0 1 1953 1615)"/><path d="M0 0 14.9998 0 14.9998 27.0002 0 27.0002 0 0Z" fill="#595959" fill-rule="evenodd" transform="matrix(-1 0 0 1 1931 1615)"/><path d="M0 0 15.0001 0 15.0001 27.0002 0 27.0002 0 0Z" fill="#595959" fill-rule="evenodd" transform="matrix(-1 0 0 1 1908 1615)"/><path d="M0 0 15.0001 0 15.0001 27.0002 0 27.0002 0 0Z" fill="#595959" fill-rule="evenodd" transform="matrix(-1 0 0 1 1885 1615)"/><path d="M0 0 13.9997 0 13.9997 26.0001 0 26.0001 0 0Z" fill="#595959" fill-rule="evenodd" transform="matrix(-1 0 0 1 1953 1650)"/><path d="M0 0 14.9998 0 14.9998 26.0001 0 26.0001 0 0Z" fill="#595959" fill-rule="evenodd" transform="matrix(-1 0 0 1 1931 1650)"/><path d="M0 0 15.0001 0 15.0001 26.0001 0 26.0001 0 0Z" fill="#595959" fill-rule="evenodd" transform="matrix(-1 0 0 1 1908 1650)"/><path d="M0 0 15.0001 0 15.0001 26.0001 0 26.0001 0 0Z" fill="#595959" fill-rule="evenodd" transform="matrix(-1 0 0 1 1885 1650)"/><path d="M2334 1474 2726 1474 2726 1712 2334 1712 2334 1474Z" fill="#FFFFFF" fill-rule="evenodd"/><path d="M2334 1474 2726 1474 2726 1712 2334 1712 2334 1474Z" fill="#595959" fill-rule="evenodd" fill-opacity="0.4"/><path d="M2726 1323 2942 1323 2942 1712 2726 1712 2726 1323Z" fill="#2B2B2B" fill-rule="evenodd"/><path d="M2898 1625 2921 1625 2921 1661 2898 1661 2898 1625Z" fill="#FFFFFF" fill-rule="evenodd" fill-opacity="0.501961"/><path d="M2868 1625 2891 1625 2891 1661 2868 1661 2868 1625Z" fill="#FFFFFF" fill-rule="evenodd" fill-opacity="0.501961"/><path d="M2837 1625 2861 1625 2861 1661 2837 1661 2837 1625Z" fill="#FFFFFF" fill-rule="evenodd" fill-opacity="0.501961"/><path d="M2898 1571 2921 1571 2921 1607 2898 1607 2898 1571Z" fill="#FFFFFF" fill-rule="evenodd" fill-opacity="0.501961"/><path d="M2868 1571 2891 1571 2891 1607 2868 1607 2868 1571Z" fill="#FFFFFF" fill-rule="evenodd" fill-opacity="0.501961"/><path d="M2837 1571 2861 1571 2861 1607 2837 1607 2837 1571Z" fill="#FFFFFF" fill-rule="evenodd" fill-opacity="0.501961"/><path d="M2898 1518 2921 1518 2921 1554 2898 1554 2898 1518Z" fill="#FFFFFF" fill-rule="evenodd" fill-opacity="0.501961"/><path d="M2868 1518 2891 1518 2891 1554 2868 1554 2868 1518Z" fill="#FFFFFF" fill-rule="evenodd" fill-opacity="0.501961"/><path d="M2837 1518 2861 1518 2861 1554 2837 1554 2837 1518Z" fill="#FFFFFF" fill-rule="evenodd" fill-opacity="0.501961"/><path d="M2807 1625 2830 1625 2830 1661 2807 1661 2807 1625Z" fill="#FFFFFF" fill-rule="evenodd" fill-opacity="0.501961"/><path d="M2807 1571 2830 1571 2830 1607 2807 1607 2807 1571Z" fill="#FFFFFF" fill-rule="evenodd" fill-opacity="0.501961"/><path d="M2807 1518 2830 1518 2830 1554 2807 1554 2807 1518Z" fill="#FFFFFF" fill-rule="evenodd" fill-opacity="0.501961"/><path d="M2776 1625 2800 1625 2800 1661 2776 1661 2776 1625Z" fill="#FFFFFF" fill-rule="evenodd" fill-opacity="0.501961"/><path d="M2776 1571 2800 1571 2800 1607 2776 1607 2776 1571Z" fill="#FFFFFF" fill-rule="evenodd" fill-opacity="0.501961"/><path d="M2776 1518 2800 1518 2800 1554 2776 1554 2776 1518Z" fill="#FFFFFF" fill-rule="evenodd" fill-opacity="0.501961"/><path d="M2746 1625 2769 1625 2769 1661 2746 1661 2746 1625Z" fill="#FFFFFF" fill-rule="evenodd" fill-opacity="0.501961"/><path d="M2746 1571 2769 1571 2769 1607 2746 1607 2746 1571Z" fill="#FFFFFF" fill-rule="evenodd" fill-opacity="0.501961"/><path d="M2746 1518 2769 1518 2769 1554 2746 1554 2746 1518Z" fill="#FFFFFF" fill-rule="evenodd" fill-opacity="0.501961"/><path d="M2898 1465 2921 1465 2921 1501 2898 1501 2898 1465Z" fill="#FFFFFF" fill-rule="evenodd" fill-opacity="0.501961"/><path d="M2868 1465 2891 1465 2891 1501 2868 1501 2868 1465Z" fill="#FFFFFF" fill-rule="evenodd" fill-opacity="0.501961"/><path d="M2837 1465 2861 1465 2861 1501 2837 1501 2837 1465Z" fill="#FFFFFF" fill-rule="evenodd" fill-opacity="0.501961"/><path d="M2898 1411 2921 1411 2921 1447 2898 1447 2898 1411Z" fill="#FFFFFF" fill-rule="evenodd" fill-opacity="0.501961"/><path d="M2868 1411 2891 1411 2891 1447 2868 1447 2868 1411Z" fill="#FFFFFF" fill-rule="evenodd" fill-opacity="0.501961"/><path d="M2837 1411 2861 1411 2861 1447 2837 1447 2837 1411Z" fill="#FFFFFF" fill-rule="evenodd" fill-opacity="0.501961"/><path d="M2898 1358 2921 1358 2921 1394 2898 1394 2898 1358Z" fill="#FFFFFF" fill-rule="evenodd" fill-opacity="0.501961"/><path d="M2868 1358 2891 1358 2891 1394 2868 1394 2868 1358Z" fill="#FFFFFF" fill-rule="evenodd" fill-opacity="0.501961"/><path d="M2837 1358 2861 1358 2861 1394 2837 1394 2837 1358Z" fill="#FFFFFF" fill-rule="evenodd" fill-opacity="0.501961"/><path d="M2807 1465 2830 1465 2830 1501 2807 1501 2807 1465Z" fill="#FFFFFF" fill-rule="evenodd" fill-opacity="0.501961"/><path d="M2807 1411 2830 1411 2830 1447 2807 1447 2807 1411Z" fill="#FFFFFF" fill-rule="evenodd" fill-opacity="0.501961"/><path d="M2807 1358 2830 1358 2830 1394 2807 1394 2807 1358Z" fill="#FFFFFF" fill-rule="evenodd" fill-opacity="0.501961"/><path d="M2776 1465 2800 1465 2800 1501 2776 1501 2776 1465Z" fill="#FFFFFF" fill-rule="evenodd" fill-opacity="0.501961"/><path d="M2776 1411 2800 1411 2800 1447 2776 1447 2776 1411Z" fill="#FFFFFF" fill-rule="evenodd" fill-opacity="0.501961"/><path d="M2776 1358 2800 1358 2800 1394 2776 1394 2776 1358Z" fill="#FFFFFF" fill-rule="evenodd" fill-opacity="0.501961"/><path d="M2746 1465 2769 1465 2769 1501 2746 1501 2746 1465Z" fill="#FFFFFF" fill-rule="evenodd" fill-opacity="0.501961"/><path d="M2746 1411 2769 1411 2769 1447 2746 1447 2746 1411Z" fill="#FFFFFF" fill-rule="evenodd" fill-opacity="0.501961"/><path d="M2746 1358 2769 1358 2769 1394 2746 1394 2746 1358Z" fill="#FFFFFF" fill-rule="evenodd" fill-opacity="0.501961"/><path d="M2713 1308 2954 1308 2954 1351 2713 1351 2713 1308Z" fill="#2B2B2B" fill-rule="evenodd"/><path d="M2664 1659 2712 1659 2712 1681 2664 1681 2664 1659Z" fill="#E8F3FF" fill-rule="evenodd"/><path d="M2538 1659 2585 1659 2585 1681 2538 1681 2538 1659Z" fill="#E8F3FF" fill-rule="evenodd"/><path d="M2664 1626 2712 1626 2712 1648 2664 1648 2664 1626Z" fill="#E8F3FF" fill-rule="evenodd"/><path d="M2538 1626 2585 1626 2585 1648 2538 1648 2538 1626Z" fill="#E8F3FF" fill-rule="evenodd"/><path d="M2664 1594 2712 1594 2712 1616 2664 1616 2664 1594Z" fill="#E8F3FF" fill-rule="evenodd"/><path d="M2538 1594 2585 1594 2585 1616 2538 1616 2538 1594Z" fill="#E8F3FF" fill-rule="evenodd"/><path d="M2475 1659 2523 1659 2523 1681 2475 1681 2475 1659Z" fill="#E8F3FF" fill-rule="evenodd"/><path d="M2475 1626 2523 1626 2523 1648 2475 1648 2475 1626Z" fill="#E8F3FF" fill-rule="evenodd"/><path d="M2475 1594 2523 1594 2523 1616 2475 1616 2475 1594Z" fill="#E8F3FF" fill-rule="evenodd"/><path d="M2411 1659 2487 1659 2487 1681 2411 1681 2411 1659Z" fill="#FFFFFF" fill-rule="evenodd"/><path d="M2411 1626 2487 1626 2487 1648 2411 1648 2411 1626Z" fill="#FFFFFF" fill-rule="evenodd"/><path d="M2411 1594 2487 1594 2487 1616 2411 1616 2411 1594Z" fill="#FFFFFF" fill-rule="evenodd"/><path d="M2349 1659 2397 1659 2397 1681 2349 1681 2349 1659Z" fill="#FFFFFF" fill-rule="evenodd"/><path d="M2349 1626 2397 1626 2397 1648 2349 1648 2349 1626Z" fill="#FFFFFF" fill-rule="evenodd"/><path d="M2349 1594 2397 1594 2397 1616 2349 1616 2349 1594Z" fill="#FFFFFF" fill-rule="evenodd"/><path d="M2664 1562 2712 1562 2712 1584 2664 1584 2664 1562Z" fill="#E8F3FF" fill-rule="evenodd"/><path d="M2538 1562 2585 1562 2585 1584 2538 1584 2538 1562Z" fill="#E8F3FF" fill-rule="evenodd"/><path d="M2664 1529 2712 1529 2712 1551 2664 1551 2664 1529Z" fill="#E8F3FF" fill-rule="evenodd"/><path d="M2538 1529 2585 1529 2585 1551 2538 1551 2538 1529Z" fill="#E8F3FF" fill-rule="evenodd"/><path d="M2664 1497 2712 1497 2712 1519 2664 1519 2664 1497Z" fill="#E8F3FF" fill-rule="evenodd"/><path d="M2601 1659 2648 1659 2648 1681 2601 1681 2601 1659Z" fill="#FFFFFF" fill-rule="evenodd"/><path d="M2601 1626 2648 1626 2648 1648 2601 1648 2601 1626Z" fill="#FFFFFF" fill-rule="evenodd"/><path d="M2601 1594 2648 1594 2648 1616 2601 1616 2601 1594Z" fill="#FFFFFF" fill-rule="evenodd"/><path d="M2601 1562 2648 1562 2648 1584 2601 1584 2601 1562Z" fill="#FFFFFF" fill-rule="evenodd"/><path d="M2601 1529 2648 1529 2648 1551 2601 1551 2601 1529Z" fill="#FFFFFF" fill-rule="evenodd"/><path d="M2601 1497 2648 1497 2648 1519 2601 1519 2601 1497Z" fill="#FFFFFF" fill-rule="evenodd"/><path d="M2538 1497 2585 1497 2585 1519 2538 1519 2538 1497Z" fill="#E8F3FF" fill-rule="evenodd"/><path d="M2475 1562 2523 1562 2523 1584 2475 1584 2475 1562Z" fill="#E8F3FF" fill-rule="evenodd"/><path d="M2475 1529 2523 1529 2523 1551 2475 1551 2475 1529Z" fill="#E8F3FF" fill-rule="evenodd"/><path d="M2475 1497 2523 1497 2523 1519 2475 1519 2475 1497Z" fill="#E8F3FF" fill-rule="evenodd"/><path d="M2411 1562 2487 1562 2487 1584 2411 1584 2411 1562Z" fill="#FFFFFF" fill-rule="evenodd"/><path d="M2411 1529 2487 1529 2487 1551 2411 1551 2411 1529Z" fill="#FFFFFF" fill-rule="evenodd"/><path d="M2411 1497 2487 1497 2487 1519 2411 1519 2411 1497Z" fill="#FFFFFF" fill-rule="evenodd"/><path d="M2349 1562 2397 1562 2397 1584 2349 1584 2349 1562Z" fill="#FFFFFF" fill-rule="evenodd"/><path d="M2349 1529 2397 1529 2397 1551 2349 1551 2349 1529Z" fill="#FFFFFF" fill-rule="evenodd"/><path d="M2349 1497 2397 1497 2397 1519 2349 1519 2349 1497Z" fill="#FFFFFF" fill-rule="evenodd"/><path d="M2229 1411 2364 1411 2364 1446 2229 1446 2229 1411Z" fill="#595959" fill-rule="evenodd"/><path d="M2269 1386 2324 1386 2324 1418 2269 1418 2269 1386Z" fill="#595959" fill-rule="evenodd"/><path d="M2217 1442 2376 1442 2376 1712 2217 1712 2217 1442Z" fill="#595959" fill-rule="evenodd"/><path d="M2266 1666 2266 1666 2267 1665C2266 1665 2266 1666 2266 1666Z" fill="#8F99A1" fill-rule="evenodd"/><path d="M2281 1418 2313 1418 2313 1434 2281 1434 2281 1418Z" fill="#FFFFFF" fill-rule="evenodd"/><path d="M2241 1418 2273 1418 2273 1434 2241 1434 2241 1418Z" fill="#FFFFFF" fill-rule="evenodd"/><path d="M2320 1418 2352 1418 2352 1434 2320 1434 2320 1418Z" fill="#FFFFFF" fill-rule="evenodd"/><path d="M2281 1395 2313 1395 2313 1411 2281 1411 2281 1395Z" fill="#FFFFFF" fill-rule="evenodd"/><path d="M2461 1480 2587 1480 2587 1712 2461 1712 2461 1480Z" fill="#595959" fill-rule="evenodd"/><path d="M2481.72 1459.22C2487.71 1441.69 2504.26 1429 2523.93 1429 2543.48 1429 2560.29 1441.69 2566.28 1459.22L2587 1459.22 2587 1485 2461 1485 2461 1459.22 2481.72 1459.22Z" fill="#595959" fill-rule="evenodd"/><path d="M2490 1473C2490 1454.21 2504.99 1439 2523.5 1439 2542.01 1439 2557 1454.21 2557 1473L2490 1473Z" fill="#FFFFFF" fill-rule="evenodd"/><path d="M2473 1644 2517 1644 2517 1664 2473 1664 2473 1644Z" fill="#FFFFFF" fill-rule="evenodd"/><path d="M2534 1644 2577 1644 2577 1664 2534 1664 2534 1644Z" fill="#FFFFFF" fill-rule="evenodd"/><path d="M2473 1613 2517 1613 2517 1634 2473 1634 2473 1613Z" fill="#FFFFFF" fill-rule="evenodd"/><path d="M2534 1613 2577 1613 2577 1634 2534 1634 2534 1613Z" fill="#FFFFFF" fill-rule="evenodd"/><path d="M2473 1583 2517 1583 2517 1603 2473 1603 2473 1583Z" fill="#FFFFFF" fill-rule="evenodd"/><path d="M2534 1583 2577 1583 2577 1603 2534 1603 2534 1583Z" fill="#FFFFFF" fill-rule="evenodd"/><path d="M2473 1552 2517 1552 2517 1573 2473 1573 2473 1552Z" fill="#FFFFFF" fill-rule="evenodd"/><path d="M2534 1552 2577 1552 2577 1573 2534 1573 2534 1552Z" fill="#FFFFFF" fill-rule="evenodd"/><path d="M2473 1522 2517 1522 2517 1543 2473 1543 2473 1522Z" fill="#FFFFFF" fill-rule="evenodd"/><path d="M2534 1522 2577 1522 2577 1543 2534 1543 2534 1522Z" fill="#FFFFFF" fill-rule="evenodd"/><path d="M2473 1492 2517 1492 2517 1512 2473 1512 2473 1492Z" fill="#FFFFFF" fill-rule="evenodd"/><path d="M2534 1492 2577 1492 2577 1512 2534 1512 2534 1492Z" fill="#FFFFFF" fill-rule="evenodd"/><path d="M2669 1382 2810 1382 2810 1419 2669 1419 2669 1382Z" fill="#595959" fill-rule="evenodd"/><path d="M2707 1666 2707 1666C2707 1666 2708 1665.5 2708 1665 2707 1665.5 2707 1666 2707 1666Z" fill="#8F99A1" fill-rule="evenodd"/><path d="M2891 1506 3105 1506 3105 1712 2891 1712 2891 1506Z" fill="#595959" fill-rule="evenodd"/><path d="M3003 1630 3038 1630 3038 1662 3003 1662 3003 1630Z" fill="#FFFFFF" fill-rule="evenodd"/><path d="M2891 1474 3105 1474 3105 1519 2891 1519 2891 1474Z" fill="#595959" fill-rule="evenodd"/><path d="M2891 1415 2975 1450.72 2975 1506 2891 1506 2891 1415Z" fill="#595959" fill-rule="evenodd"/><path d="M2912 1632 2947 1632 2947 1664 2912 1664 2912 1632Z" fill="#FFFFFF" fill-rule="evenodd"/><path d="M2958 1632 2993 1632 2993 1664 2958 1664 2958 1632Z" fill="#FFFFFF" fill-rule="evenodd"/><path d="M2912 1585 2947 1585 2947 1617 2912 1617 2912 1585Z" fill="#FFFFFF" fill-rule="evenodd"/><path d="M2958 1585 2993 1585 2993 1617 2958 1617 2958 1585Z" fill="#FFFFFF" fill-rule="evenodd"/><path d="M3003 1585 3038 1585 3038 1617 3003 1617 3003 1585Z" fill="#FFFFFF" fill-rule="evenodd"/><path d="M2912 1537 2947 1537 2947 1569 2912 1569 2912 1537Z" fill="#FFFFFF" fill-rule="evenodd"/><path d="M2958 1537 2993 1537 2993 1569 2958 1569 2958 1537Z" fill="#FFFFFF" fill-rule="evenodd"/><path d="M3003 1537 3038 1537 3038 1569 3003 1569 3003 1537Z" fill="#FFFFFF" fill-rule="evenodd"/><path d="M3049 1632 3083 1632 3083 1664 3049 1664 3049 1632Z" fill="#FFFFFF" fill-rule="evenodd"/><path d="M3049 1585 3083 1585 3083 1617 3049 1617 3049 1585Z" fill="#FFFFFF" fill-rule="evenodd"/><path d="M3049 1537 3083 1537 3083 1569 3049 1569 3049 1537Z" fill="#FFFFFF" fill-rule="evenodd"/><path d="M2912 1440 2961 1460.04 2961 1474 2912 1474 2912 1440Z" fill="#FFFFFF" fill-rule="evenodd"/><path d="M2657 1415 2822 1415 2822 1712 2657 1712 2657 1415Z" fill="#595959" fill-rule="evenodd"/><path d="M2695 1673 2784 1673 2784 1712 2695 1712 2695 1673Z" fill="#C1DEEC" fill-rule="evenodd" fill-opacity="0.701961"/><path d="M2670 1632 2708 1632 2708 1664 2670 1664 2670 1632Z" fill="#C1DEEC" fill-rule="evenodd" fill-opacity="0.701961"/><path d="M2720 1632 2759 1632 2759 1664 2720 1664 2720 1632Z" fill="#C1DEEC" fill-rule="evenodd" fill-opacity="0.701961"/><path d="M2771 1632 2809 1632 2809 1664 2771 1664 2771 1632Z" fill="#C1DEEC" fill-rule="evenodd" fill-opacity="0.701961"/><path d="M2670 1585 2708 1585 2708 1617 2670 1617 2670 1585Z" fill="#C1DEEC" fill-rule="evenodd" fill-opacity="0.701961"/><path d="M2720 1585 2759 1585 2759 1617 2720 1617 2720 1585Z" fill="#C1DEEC" fill-rule="evenodd" fill-opacity="0.701961"/><path d="M2771 1585 2809 1585 2809 1617 2771 1617 2771 1585Z" fill="#C1DEEC" fill-rule="evenodd" fill-opacity="0.701961"/><path d="M2670 1537 2708 1537 2708 1569 2670 1569 2670 1537Z" fill="#C1DEEC" fill-rule="evenodd" fill-opacity="0.701961"/><path d="M2771 1537 2809 1537 2809 1569 2771 1569 2771 1537Z" fill="#C1DEEC" fill-rule="evenodd" fill-opacity="0.701961"/><path d="M2670 1490 2708 1490 2708 1522 2670 1522 2670 1490Z" fill="#C1DEEC" fill-rule="evenodd" fill-opacity="0.701961"/><path d="M2720 1490 2759 1490 2759 1569 2720 1569 2720 1490Z" fill="#C1DEEC" fill-rule="evenodd" fill-opacity="0.701961"/><path d="M2771 1490 2809 1490 2809 1522 2771 1522 2771 1490Z" fill="#C1DEEC" fill-rule="evenodd" fill-opacity="0.701961"/><path d="M2670 1442 2708 1442 2708 1474 2670 1474 2670 1442Z" fill="#C1DEEC" fill-rule="evenodd" fill-opacity="0.701961"/><path d="M2720 1442 2759 1442 2759 1474 2720 1474 2720 1442Z" fill="#C1DEEC" fill-rule="evenodd" fill-opacity="0.701961"/><path d="M2771 1442 2809 1442 2809 1474 2771 1474 2771 1442Z" fill="#C1DEEC" fill-rule="evenodd" fill-opacity="0.701961"/><path d="M2682 1389 2715 1389 2715 1407 2682 1407 2682 1389Z" fill="#C1DEEC" fill-rule="evenodd" fill-opacity="0.701961"/><path d="M2723 1389 2756 1389 2756 1407 2723 1407 2723 1389Z" fill="#C1DEEC" fill-rule="evenodd" fill-opacity="0.701961"/><path d="M2764 1389 2797 1389 2797 1407 2764 1407 2764 1389Z" fill="#C1DEEC" fill-rule="evenodd" fill-opacity="0.701961"/><path d="M2230 1634 2267 1634 2267 1657 2230 1657 2230 1634Z" fill="#FFFFFF" fill-rule="evenodd"/><path d="M2278 1634 2315 1634 2315 1657 2278 1657 2278 1634Z" fill="#FFFFFF" fill-rule="evenodd"/><path d="M2327 1634 2363 1634 2363 1658 2327 1658 2327 1634Z" fill="#FFFFFF" fill-rule="evenodd"/><path d="M2230 1599 2267 1599 2267 1623 2230 1623 2230 1599Z" fill="#FFFFFF" fill-rule="evenodd"/><path d="M2278 1599 2315 1599 2315 1623 2278 1623 2278 1599Z" fill="#FFFFFF" fill-rule="evenodd"/><path d="M2327 1599 2363 1599 2363 1623 2327 1623 2327 1599Z" fill="#FFFFFF" fill-rule="evenodd"/><path d="M2230 1565 2267 1565 2267 1588 2230 1588 2230 1565Z" fill="#FFFFFF" fill-rule="evenodd"/><path d="M2278 1565 2315 1565 2315 1588 2278 1588 2278 1565Z" fill="#FFFFFF" fill-rule="evenodd"/><path d="M2327 1565 2363 1565 2363 1588 2327 1588 2327 1565Z" fill="#FFFFFF" fill-rule="evenodd"/><path d="M2230 1530 2267 1530 2267 1553 2230 1553 2230 1530Z" fill="#FFFFFF" fill-rule="evenodd"/><path d="M2278 1530 2315 1530 2315 1553 2278 1553 2278 1530Z" fill="#FFFFFF" fill-rule="evenodd"/><path d="M2327 1530 2363 1530 2363 1553 2327 1553 2327 1530Z" fill="#FFFFFF" fill-rule="evenodd"/><path d="M2230 1495 2267 1495 2267 1519 2230 1519 2230 1495Z" fill="#FFFFFF" fill-rule="evenodd"/><path d="M2278 1495 2315 1495 2315 1519 2278 1519 2278 1495Z" fill="#FFFFFF" fill-rule="evenodd"/><path d="M2327 1495 2363 1495 2363 1519 2327 1519 2327 1495Z" fill="#FFFFFF" fill-rule="evenodd"/><path d="M2230 1460 2267 1460 2267 1484 2230 1484 2230 1460Z" fill="#FFFFFF" fill-rule="evenodd"/><path d="M2278 1460 2315 1460 2315 1484 2278 1484 2278 1460Z" fill="#FFFFFF" fill-rule="evenodd"/><path d="M2327 1460 2363 1460 2363 1484 2327 1484 2327 1460Z" fill="#FFFFFF" fill-rule="evenodd"/><path d="M2254 1668 2340 1668 2340 1712 2254 1712 2254 1668Z" fill="#FFFFFF" fill-rule="evenodd"/></g></svg>