<svg width="837" height="328" xmlns="http://www.w3.org/2000/svg" xmlns:xlink="http://www.w3.org/1999/xlink" xml:space="preserve" overflow="hidden"><defs><clipPath id="clip0"><rect x="179" y="1449" width="837" height="328"/></clipPath></defs><g clip-path="url(#clip0)" transform="translate(-179 -1449)"><path d="M91.0001 45.0537C91.0001 52.922 88.9294 60.7902 84.8971 67.5806 80.9737 74.4788 75.1977 80.0836 68.2228 83.9638 61.3569 87.9518 53.4013 89.9997 45.4456 89.9997 37.4899 89.9997 29.6431 87.9518 22.6683 83.9638 15.8024 80.0836 10.1353 74.4788 6.103 67.5806 2.17964 60.7902 0 52.922 0 45.0537 0 37.1855 2.07066 29.4251 6.103 22.5269 10.0264 15.7365 15.8024 10.0239 22.6683 6.03591 29.6431 2.15568 37.4899 0 45.4456 0 53.4013 0 61.3569 2.15568 68.2228 6.03591 75.1977 10.0239 80.8648 15.7365 84.8971 22.5269 88.8205 29.4251 91.0001 37.1855 91.0001 45.0537Z" fill="#91C767" fill-rule="evenodd" transform="matrix(-1 0 0 1 355 1666)"/><path d="M28.5069 28.4153 14.3077 42.0287 14.3077 0 10.6224 0 10.6224 22.0407C8.45453 20.6362 5.09439 18.3673 2.16783 16.2064L0 19.1236C5.85313 23.4453 8.88809 25.3901 10.6224 26.2544L10.6224 89.9997 14.3077 89.9997 14.3077 46.9986 30.9999 31.1163 28.5069 28.4153Z" fill="#595959" fill-rule="evenodd" transform="matrix(-1 0 0 1 325 1687)"/><path d="M73.9999 120.945C73.9999 176.401 57.4725 201 37 201 16.634 201 0 176.509 0 120.945 0 65.4894 16.634 0 37 0 57.4725 0 73.9999 65.3816 73.9999 120.945Z" fill="#91C767" fill-rule="evenodd" transform="matrix(-1 0 0 1 440 1477)"/><path d="M28.3985 62.5925 14.1993 76.0823 14.1993 0 10.514 0 10.514 56.1174C8.34614 54.7145 4.986 52.4482 2.05944 50.2898L0 53.3115C5.85313 57.5204 8.88809 59.4629 10.514 60.3262L10.514 169 14.1993 169 14.1993 81.1544 30.9999 65.1825 28.3985 62.5925Z" fill="#595959" fill-rule="evenodd" transform="matrix(-1 0 0 1 418 1533)"/><path d="M74.9999 120.945C74.9999 176.401 58.2492 201 37.5 201 16.8588 201 0 176.509 0 120.945 0 65.4894 16.8588 0 37.5 0 58.2492 0 74.9999 65.3816 74.9999 120.945Z" fill="#91C767" fill-rule="evenodd" transform="matrix(-1 0 0 1 254 1477)"/><path d="M29.9999 65.1825 27.5873 62.5925 13.8461 76.0823 13.8461 0 10.2797 0 10.2797 56.1174C8.18179 54.7145 4.93005 52.4482 2.0979 50.2898L0 53.3115C5.66432 57.5204 8.60137 59.4629 10.2797 60.3262L10.2797 169 13.8461 169 13.8461 81.1544 29.9999 65.1825Z" fill="#595959" fill-rule="evenodd" transform="matrix(-1 0 0 1 231 1533)"/><path d="M74.9999 120.945C74.9999 176.401 58.2492 201 37.5 201 16.7507 201 0 176.509 0 120.945 0 65.4894 16.7507 0 37.5 0 58.2492 0 74.9999 65.3816 74.9999 120.945Z" fill="#91C767" fill-rule="evenodd" transform="matrix(-1 0 0 1 919 1477)"/><path d="M30.9999 65.1825 28.5069 62.5925 14.3077 76.0823 14.3077 0 10.6224 0 10.6224 56.1174C8.45453 54.7145 5.09439 52.4482 2.16783 50.2898L0 53.3115C5.85313 57.5204 8.88809 59.4629 10.6224 60.3262L10.6224 169 14.3077 169 14.3077 81.1544 30.9999 65.1825Z" fill="#595959" fill-rule="evenodd" transform="matrix(-1 0 0 1 897 1533)"/><path d="M90.0001 44.9461C90.0001 52.9222 87.9522 60.6827 83.9641 67.4731 80.0839 74.2635 74.3713 80.0839 67.4731 83.9641 60.6827 87.9522 52.8144 90.0001 44.9461 90.0001 37.0779 90.0001 29.3174 87.9522 22.4192 83.9641 15.6288 80.0839 10.024 74.2635 6.03593 67.4731 2.15569 60.6827 0 52.9222 0 44.9461 0 37.0779 2.04791 29.3174 6.03593 22.527 9.91617 15.6288 15.6288 10.024 22.4192 6.03593 29.3174 2.15569 37.0779 0 44.9461 0 52.8144 0 60.6827 2.15569 67.4731 6.03593 74.3713 10.024 79.9761 15.6288 83.9641 22.527 87.8444 29.3174 90.0001 37.0779 90.0001 44.9461Z" fill="#91C767" fill-rule="evenodd" transform="matrix(-1 0 0 1 1016 1568)"/><path d="M30.9999 31.0456 28.5069 28.4494 14.3077 41.971 14.3077 0 10.6224 0 10.6224 21.9591C8.45453 20.5528 5.09439 18.2812 2.16783 16.1177L0 19.1466C5.85313 23.3653 8.88809 25.3124 10.6224 26.1778L10.6224 89.9997 14.3077 89.9997 14.3077 47.0551 30.9999 31.0456Z" fill="#595959" fill-rule="evenodd" transform="matrix(-1 0 0 1 987 1588)"/><path d="M70.9998 34.9581C70.9998 41.1618 69.3842 47.1977 66.2381 52.4791 63.1771 57.7606 58.6705 62.2875 53.2286 65.3055 47.8717 68.4073 41.6646 70.0001 35.4574 70.0001 29.2502 70.0001 23.1281 68.4073 17.6862 65.3055 12.3293 62.2875 7.90776 57.7606 4.76166 52.4791 1.70059 47.1977 0 41.1618 0 34.9581 0 28.8384 1.61556 22.8024 4.76166 17.521 7.82273 12.1557 12.3293 7.79642 17.6862 4.69462 23.1281 1.67665 29.2502 0 35.4574 0 41.6646 0 47.8717 1.67665 53.2286 4.69462 58.6705 7.79642 63.092 12.1557 66.2381 17.521 69.2992 22.8024 70.9998 28.8384 70.9998 34.9581Z" fill="#91C767" fill-rule="evenodd" transform="matrix(-1 0 0 1 514 1449)"/><path d="M23.9997 24.4915 22.0697 22.4434 11.0768 33.1105 11.0768 0 8.22368 0 8.22368 17.3233C6.54537 16.2139 3.94401 14.4218 1.6783 12.7151L0 15.1045C4.53141 18.4326 6.88103 19.9687 8.22368 20.6514L8.22368 70.9998 11.0768 70.9998 11.0768 37.1213 23.9997 24.4915Z" fill="#595959" fill-rule="evenodd" transform="matrix(-1 0 0 1 490 1464)"/></g></svg>