<svg width="1692" height="464" xmlns="http://www.w3.org/2000/svg" xmlns:xlink="http://www.w3.org/1999/xlink" xml:space="preserve" overflow="hidden"><defs><clipPath id="clip0"><rect x="295" y="940" width="1692" height="464"/></clipPath></defs><g clip-path="url(#clip0)" transform="translate(-295 -940)"><path d="M0 279 214.961 14.5369C221.328 14.5369 228.882 12.1679 233.846 11.1988 245.069 9.15284 251.436 13.3524 270.32 33.4886 289.205 53.5172 292.982 18.198 311.975 20.89 331.075 23.6897 350.176 49.3177 357.73 18.198 360.859 5.38402 367.657 0.861444 374.672 0L596 279 0 279Z" fill="#9D8365" fill-rule="evenodd" fill-opacity="0.8" transform="matrix(-1 0 0 1 1563 1074)"/><path d="M142.229 90.3784C134.704 121.622 115.675 95.892 96.6469 93.0811 77.7261 90.3784 73.9634 125.838 55.15 105.73 36.3367 85.5136 29.9939 81.2973 18.8134 83.3514 13.8681 84.3244 6.34279 86.7028 0 86.7028L49.4523 17.7297C65.793-5.08108 96.7544-6.05406 114.17 15.7838L159 72.1081C152.119 72.973 145.347 77.5136 142.229 90.3784Z" fill="#FFFFFF" fill-rule="evenodd" transform="matrix(-1 0 0 1 1348 1002)"/><path d="M0 309.166 252.144 16.9717C259.478 16.8636 268.213 14.1611 273.929 13.0801 287.086 10.7019 294.42 15.5664 316.312 38.916 338.205 62.3737 342.519 21.2957 364.627 24.4306 386.736 27.6736 408.952 57.4011 417.688 21.1876 421.354 6.2698 429.227 1.081 437.316 0L745 359 0 309.166Z" fill="#9D8365" fill-rule="evenodd" transform="matrix(-1 0 0 1 1280 1024)"/><path d="M166.273 104.168C157.493 140.18 135.165 110.51 112.944 107.393 90.7239 104.168 86.3883 145.125 64.3847 121.798 42.3812 98.5777 35.0106 93.7402 21.7868 96.1052 16.042 97.1802 7.26225 99.8677 0 99.9752L57.7728 20.3175C76.8498-6.02001 113.161-6.98751 133.43 18.1675L186 83.0977C177.871 84.1727 169.958 89.3327 166.273 104.168Z" fill="#FFFFFF" fill-rule="evenodd" transform="matrix(-1 0 0 1 1028 941)"/><path d="M0 254 180.337 13.2343C185.678 13.2343 192.015 11.0776 196.18 10.1953 205.595 8.33269 210.936 12.1559 226.779 30.4878 242.622 48.7217 245.79 16.5674 261.724 19.0181 277.747 21.567 293.771 44.8985 300.109 16.5674 302.734 4.90158 308.437 0.784253 314.322 0L500 254 0 254Z" fill="#9D8365" fill-rule="evenodd" transform="matrix(-1 0 0 1 1987 1144)"/><path d="M118.972 82.309C112.677 110.763 96.76 87.3302 80.8432 84.7703 65.0162 82.309 61.8688 114.602 46.1319 96.2897 30.3949 77.8784 25.0893 74.0387 15.737 75.9093 11.6004 76.7954 5.30561 78.9615 0 78.9615L41.3658 16.1467C55.0345-4.62742 80.9331-5.51352 95.501 14.3745L133 65.6699C127.245 66.4576 121.579 70.5927 118.972 82.309Z" fill="#FFFFFF" fill-rule="evenodd" transform="matrix(-1 0 0 1 1806 1078)"/><path d="M0 254C0 254 485.793-316.607 1053 252.572L0 254Z" fill="#3A9E48" fill-rule="evenodd" transform="matrix(-1 0 0 1 1486 1150)"/><path d="M0 7.9999 6.0002 7.9999 6.0002 0 0 7.9999Z" fill="#2B2B2B" fill-rule="evenodd" transform="matrix(-1 0 0 1 1123 1274)"/><path d="M0 59.0465 0 144 107 144 107 70.057 48.8126 0 0 59.0465Z" fill="#DA6323" fill-rule="evenodd" transform="matrix(-1 0 0 1 1117 1212)"/><path d="M0 0 100 0 100 73.0002 0 73.0002 0 0Z" fill="#DA6323" fill-rule="evenodd" transform="matrix(-1 0 0 1 1010 1283)"/><path d="M0 0 28.9999 0 28.9999 60.0002 0 60.0002 0 0Z" fill="#595959" fill-rule="evenodd" transform="matrix(-1 0 0 1 1084 1296)"/><path d="M0 0 22.9997 0 22.9997 25.0001 0 25.0001 0 0Z" fill="#595959" fill-rule="evenodd" transform="matrix(-1 0 0 1 985 1294)"/><path d="M0 0 23 0 23 25.0001 0 25.0001 0 0Z" fill="#595959" fill-rule="evenodd" transform="matrix(-1 0 0 1 949 1294)"/><path d="M0 0 60.6775 74.9999 171 74.9999 109.89 0 0 0Z" fill="#FFFFFF" fill-rule="evenodd" transform="matrix(-1 0 0 1 1068 1203)"/><path d="M60.8418 0 0 72.4678 5.73775 79.0558 60.7336 11.448 117.137 80.9998 227.237 80.9998 232 74.3038 121.575 74.3038 60.8418 0Z" fill="#595959" fill-rule="evenodd" transform="matrix(-1 0 0 1 1129 1203)"/><path d="M0 0 22 0 22 77 0 48.8811 0 0Z" fill="#595959" fill-rule="evenodd" transform="matrix(-1 0 0 1 1020 1166)"/><path d="M0 121C0 121 120.872-150.825 262 120.32L0 121Z" fill="#91C767" fill-rule="evenodd" transform="matrix(-1 0 0 1 557 1282)"/><path d="M0 93.9998C0 93.9998 136.096-117.169 295 93.4713L0 93.9998Z" fill="#3A9E48" fill-rule="evenodd" transform="matrix(-1 0 0 1 1907 1310)"/><path d="M0 149C0 149 136.096-185.726 295 148.162L0 149Z" fill="#91C767" fill-rule="evenodd" transform="matrix(-1 0 0 1 1683 1255)"/><path d="M24.0675 0.569443C39.1703-2.03373 52.9001 4.63689 54.8385 15.619 56.696 26.6011 46.116 37.6646 31.0132 40.3491 15.9104 43.0336 2.18062 36.2817 0.242291 25.2995-1.61527 14.3174 8.96476 3.25396 24.0675 0.569443Z" fill="#FFFFFF" fill-rule="evenodd" transform="matrix(-1 0 0 1 1149 959)"/><path d="M24.5402 0.570878C39.9081-2.20196 53.9081 4.73013 55.8391 15.9846 57.7701 27.239 46.9081 38.575 31.6207 41.3479 16.2529 44.1207 2.17242 37.1886 0.241379 25.9342-1.68966 14.6797 9.09196 3.34371 24.5402 0.570878Z" fill="#FFFFFF" fill-rule="evenodd" transform="matrix(-1 0 0 1 1126 974)"/><path d="M16.6148 0.328444C27.0607-1.478 36.5196 3.12022 37.9179 10.6744 39.2339 18.1465 31.9136 25.7828 21.4676 27.5893 11.0217 29.3957 1.48053 24.7975 0.164503 17.2433-1.15152 9.7712 6.16886 2.13488 16.6148 0.328444Z" fill="#FFFFFF" fill-rule="evenodd" transform="matrix(-1 0 0 1 1170 980)"/><path d="M17.8968 0.403224C29.1229-1.53225 39.3729 3.38709 40.8372 11.4516 42.2201 19.4354 34.3293 27.5806 23.1031 29.516 11.877 31.4515 1.62698 26.5322 0.162698 18.4677-1.22024 10.4838 6.75197 2.3387 17.8968 0.403224Z" fill="#FFFFFF" fill-rule="evenodd" transform="matrix(-1 0 0 1 1146 992)"/></g></svg>