<svg width="234" height="114" xmlns="http://www.w3.org/2000/svg" xmlns:xlink="http://www.w3.org/1999/xlink" xml:space="preserve" overflow="hidden"><g transform="translate(-1215 -1267)"><path d="M1430.86 1344.58C1429.79 1344.58 1428.88 1344.73 1427.81 1344.89 1426.29 1328.06 1412.26 1314.9 1395.04 1314.9 1388.48 1314.9 1382.38 1316.88 1377.2 1320.25 1375.22 1290.41 1350.67 1267 1320.49 1267 1290.46 1267 1266.37 1289.95 1263.93 1319.03 1259.21 1316.43 1253.72 1314.9 1247.93 1314.9 1229.79 1314.9 1215 1329.74 1215 1347.95 1215 1366.16 1229.79 1381 1247.93 1381L1430.86 1381C1440.92 1381 1449 1372.89 1449 1362.79 1449 1352.69 1440.92 1344.58 1430.86 1344.58Z" fill="#FFFFFF" fill-rule="evenodd"/></g></svg>