<svg width="309" height="188" xmlns="http://www.w3.org/2000/svg" xmlns:xlink="http://www.w3.org/1999/xlink" xml:space="preserve" overflow="hidden"><defs><clipPath id="clip0"><rect x="1888" y="328" width="309" height="188"/></clipPath></defs><g clip-path="url(#clip0)" transform="translate(-1888 -328)"><path d="M2130.89 386.509C2128.16 353.853 2090.83 328 2045.07 328 2004.1 328 1969.72 348.864 1961.07 376.531 1956.29 375.624 1951.51 375.17 1946.28 375.17 1914.18 375.17 1888 393.766 1888 417.124 1888 440.256 1914.18 459.305 1946.28 459.305 1949.01 459.305 1951.74 459.078 1954.24 458.852 1954.24 459.532 1954.02 459.985 1954.02 460.666 1954.02 491.054 1988.62 516 2030.96 516 2065.11 516 2094.24 499.672 2104.03 477.448 2112.23 479.942 2121.11 481.53 2130.21 481.53 2166.63 481.53 2196 460.212 2196 433.906 2196.23 407.826 2166.86 386.736 2130.89 386.509Z" fill="#FFFFFF" fill-rule="evenodd"/></g></svg>